<?xml version="1.0" encoding="UTF-8"?>
<svg width="60px" height="60px" viewBox="0 0 60 60" version="1.1" xmlns="http://www.w3.org/2000/svg" xmlns:xlink="http://www.w3.org/1999/xlink">
    <!-- Generator: Sketch 47 (45396) - http://www.bohemiancoding.com/sketch -->
    <title>Imported Layers</title>
    <desc>Created with Sketch.</desc>
    <defs></defs>
    <g id="留学" stroke="none" stroke-width="1" fill="none" fill-rule="evenodd">
        <g id="Artboard-2" transform="translate(-262.000000, -270.000000)" fill="#197BC0">
            <g id="Imported-Layers" transform="translate(274.000000, 270.000000)">
                <path d="M11.0625,40.7315136 C10.6057258,40.7315136 10.1679839,40.4670968 9.97290323,40.0168734 C9.15451613,38.1492804 6.78262097,32.951464 5.65733871,31.3911663 C-0.773185484,22.4748387 -0.723225806,12.1101737 5.78104839,5.59741935 C12.9229032,-1.5537469 24.5468548,-1.5537469 31.6887097,5.59741935 C38.2025,12.1197022 38.2524597,22.4867494 31.8124194,31.3911663 C30.682379,32.9538462 28.2938306,38.1516625 27.4683065,40.0216377 C27.2042339,40.6243176 26.5024194,40.898263 25.9005242,40.6290819 C25.3010081,40.364665 25.0274194,39.6619355 25.2914919,39.0592556 C25.4175806,38.7757816 28.3770968,32.079603 29.8830242,29.9952357 C34.3032661,23.885062 36.9868145,14.2707692 30.0067339,7.28158809 C23.7903226,1.06183623 13.6794355,1.06183623 7.46302419,7.28158809 C0.492459677,14.2612407 3.17362903,23.8802978 7.58673387,29.9952357 C9.09028226,32.0819851 12.0260081,38.7781638 12.1520968,39.0640199 C12.4161694,39.6666998 12.1425806,40.3670471 11.5383065,40.631464 C11.3836694,40.6981638 11.2218952,40.7315136 11.0625,40.7315136" id="Fill-1"></path>
                <path d="M11.1195968,46.3771712 C10.5272177,46.3771712 10.0133468,45.9340943 9.94197581,45.3314144 C9.86108871,44.6763275 10.327379,44.0831762 10.9792339,44.0045658 L26.2050403,42.1584119 C26.8497581,42.0845658 27.4492742,42.5443176 27.5277823,43.1946402 C27.6062903,43.8473449 27.142379,44.4404963 26.4905242,44.5214888 L11.2647177,46.3676427 C11.2171371,46.3747891 11.1695565,46.3771712 11.1195968,46.3771712" id="Fill-2"></path>
                <path d="M11.1195968,52.0942928 C10.5272177,52.0942928 10.0133468,51.6512159 9.94197581,51.048536 C9.86108871,50.3958313 10.327379,49.8002978 10.9792339,49.7216873 L26.2050403,47.8755335 C26.8497581,47.777866 27.4492742,48.2614392 27.5277823,48.9117618 C27.6062903,49.5668486 27.142379,50.16 26.4905242,50.2386104 L11.2647177,52.0847643 C11.2171371,52.0919107 11.1695565,52.0942928 11.1195968,52.0942928" id="Fill-3"></path>
                <path d="M18.6896774,59.7766749 C15.9347581,59.7766749 13.6937097,57.5350868 13.6937097,54.7741935 C13.6937097,54.1167246 14.2266129,53.5831266 14.8832258,53.5831266 C15.5422177,53.5831266 16.0727419,54.1167246 16.0727419,54.7741935 C16.0727419,56.2201489 17.2479839,57.3945409 18.6896774,57.3945409 C20.13375,57.3945409 21.3066129,56.2201489 21.3066129,54.7741935 C21.3066129,54.1167246 21.8395161,53.5831266 22.496129,53.5831266 C23.1527419,53.5831266 23.6856452,54.1167246 23.6856452,54.7741935 C23.6856452,57.5350868 21.4445968,59.7766749 18.6896774,59.7766749" id="Fill-4"></path>
                <path d="M9.21875,19.7568238 C8.5621371,19.7568238 8.02923387,19.2256079 8.02923387,18.5657568 C8.02923387,12.6556824 12.8325,7.84615385 18.734879,7.84615385 C19.3914919,7.84615385 19.9243952,8.37975186 19.9243952,9.03722084 C19.9243952,9.69707196 19.3914919,10.2282878 18.734879,10.2282878 C14.1433468,10.2282878 10.4082661,13.9706203 10.4082661,18.5657568 C10.4082661,19.2256079 9.8753629,19.7568238 9.21875,19.7568238" id="Fill-5"></path>
            </g>
        </g>
    </g>
</svg>