<?xml version="1.0" encoding="UTF-8"?>
<svg width="60px" height="60px" viewBox="0 0 60 60" version="1.1" xmlns="http://www.w3.org/2000/svg" xmlns:xlink="http://www.w3.org/1999/xlink">
    <!-- Generator: Sketch 47 (45396) - http://www.bohemiancoding.com/sketch -->
    <title>Imported Layers</title>
    <desc>Created with Sketch.</desc>
    <defs></defs>
    <g id="留学" stroke="none" stroke-width="1" fill="none" fill-rule="evenodd">
        <g id="Artboard-2" transform="translate(-405.000000, -188.000000)" fill="#197BC0">
            <g id="Imported-Layers" transform="translate(403.000000, 188.000000)">
                <path d="M31.6224,17.1912 C31.4304,17.1912 31.2384,17.1456 31.0656,17.052 L16.9608,9.6552 C16.5672,9.4512 16.32,9.0408 16.32,8.5944 C16.32,8.1504 16.5672,7.74 16.9608,7.5336 L31.0656,0.1392 C31.416,-0.0432 31.8288,-0.0432 32.1792,0.1392 L46.284,7.5336 C46.6776,7.74 46.9272,8.1504 46.9272,8.5944 C46.9272,9.0408 46.68,9.4512 46.284,9.6552 L32.1792,17.052 C32.0064,17.1456 31.8144,17.1912 31.6224,17.1912 L31.6224,17.1912 Z M20.1024,8.5944 L31.6224,14.6376 L43.1424,8.5944 L31.6224,2.5536 L20.1024,8.5944 L20.1024,8.5944 Z" id="Fill-1"></path>
                <path d="M31.7016,34.9608 C31.512,34.9608 31.32,34.9176 31.1448,34.824 L17.0424,27.4296 C16.6488,27.2232 16.4016,26.8176 16.3992,26.3712 L16.32,8.5992 C16.3176,8.1792 16.536,7.788 16.896,7.5672 C17.256,7.3536 17.7048,7.3368 18.0768,7.5336 L32.1792,14.9304 C32.5728,15.1368 32.82,15.5424 32.8224,15.9864 L32.904,33.756 C32.904,34.176 32.688,34.5672 32.328,34.7856 C32.136,34.9032 31.92,34.9608 31.7016,34.9608 L31.7016,34.9608 Z M18.7968,25.6416 L30.4944,31.7712 L30.4272,16.7184 L18.7296,10.584 L18.7968,25.6416 L18.7968,25.6416 Z" id="Fill-2"></path>
                <path d="M31.7016,34.9608 C31.4856,34.9608 31.2696,34.9032 31.08,34.7856 C30.72,34.5672 30.5016,34.176 30.5016,33.756 L30.5832,15.9864 C30.5856,15.5424 30.8328,15.1368 31.2264,14.9304 L45.3288,7.5336 C45.7008,7.3368 46.152,7.3536 46.5096,7.5672 C46.8696,7.788 47.088,8.1792 47.088,8.5992 L47.0064,26.3712 C47.004,26.8176 46.7592,27.2232 46.3656,27.4296 L32.2608,34.824 C32.0856,34.9176 31.8936,34.9608 31.7016,34.9608 L31.7016,34.9608 Z M32.9784,16.7184 L32.9112,31.7712 L44.6112,25.6416 L44.6784,10.584 L32.9784,16.7184 L32.9784,16.7184 Z" id="Fill-3"></path>
                <path d="M17.4408,42.228 C17.2464,42.228 17.0568,42.18 16.8816,42.0888 L2.7768,34.6944 C2.3832,34.488 2.136,34.0776 2.136,33.6336 C2.136,33.1872 2.3832,32.7768 2.7768,32.5704 L16.8816,25.176 C17.2296,24.9936 17.6472,24.9936 17.9976,25.176 L32.1,32.5704 C32.496,32.7768 32.7432,33.1872 32.7432,33.6336 C32.7432,34.0776 32.496,34.488 32.1,34.6944 L17.9976,42.0888 C17.82,42.18 17.6304,42.228 17.4408,42.228 L17.4408,42.228 Z M5.9208,33.6336 L17.4408,39.672 L28.9584,33.6336 L17.4408,27.5928 L5.9208,33.6336 L5.9208,33.6336 Z" id="Fill-4"></path>
                <path d="M17.52,60 C17.328,60 17.136,59.9544 16.9608,59.8608 L2.8584,52.4664 C2.4648,52.26 2.2176,51.8544 2.2152,51.4104 L2.136,33.6384 C2.1336,33.2184 2.352,32.8272 2.712,32.6088 C3.072,32.3904 3.5208,32.3712 3.8928,32.5704 L17.9976,39.9648 C18.3912,40.1712 18.636,40.5768 18.6384,41.0232 L18.72,58.7952 C18.72,59.2152 18.504,59.6064 18.144,59.8248 C17.952,59.9424 17.736,60 17.52,60 L17.52,60 Z M4.6128,50.6784 L16.3104,56.8104 L16.2408,41.7528 L4.5432,35.6232 L4.6128,50.6784 L4.6128,50.6784 Z" id="Fill-5"></path>
                <path d="M17.52,60 C17.3016,60 17.0856,59.9424 16.896,59.8248 C16.536,59.6064 16.3176,59.2152 16.32,58.7952 L16.3992,41.0232 C16.4016,40.5768 16.6488,40.1712 17.0424,39.9648 L31.1448,32.5704 C31.5192,32.3712 31.968,32.3904 32.328,32.6088 C32.688,32.8272 32.904,33.2184 32.904,33.6384 L32.8224,51.4104 C32.82,51.8544 32.5728,52.26 32.1792,52.4664 L18.0768,59.8608 C17.9016,59.9544 17.7096,60 17.52,60 L17.52,60 Z M18.7968,41.7528 L18.7296,56.8104 L30.4272,50.6784 L30.4944,35.6232 L18.7968,41.7528 L18.7968,41.7528 Z" id="Fill-6"></path>
                <path d="M45.8064,42.228 C45.6144,42.228 45.4248,42.18 45.2496,42.0888 L31.1448,34.6944 C30.7512,34.488 30.5016,34.0776 30.5016,33.6336 C30.5016,33.1872 30.7512,32.7768 31.1448,32.5704 L45.2496,25.176 C45.5976,24.9936 46.0152,24.9936 46.3656,25.176 L60.468,32.5704 C60.8616,32.7768 61.1112,33.1872 61.1112,33.6336 C61.1112,34.0776 60.8616,34.488 60.468,34.6944 L46.3656,42.0888 C46.188,42.18 45.9984,42.228 45.8064,42.228 L45.8064,42.228 Z M34.2888,33.6336 L45.8064,39.672 L57.3264,33.6336 L45.8064,27.5928 L34.2888,33.6336 L34.2888,33.6336 Z" id="Fill-7"></path>
                <path d="M45.8856,60 C45.696,60 45.504,59.9544 45.3288,59.8608 L31.2264,52.4664 C30.8328,52.26 30.5856,51.8544 30.5832,51.4104 L30.5016,33.6384 C30.5016,33.2184 30.72,32.8272 31.08,32.6088 C31.44,32.3904 31.8888,32.3712 32.2608,32.5704 L46.3656,39.9648 C46.7592,40.1712 47.004,40.5768 47.0064,41.0232 L47.088,58.7952 C47.088,59.2152 46.8696,59.6064 46.5096,59.8248 C46.32,59.9424 46.1016,60 45.8856,60 L45.8856,60 Z M32.9784,50.6784 L44.6784,56.8104 L44.6112,41.7528 L32.9112,35.6232 L32.9784,50.6784 L32.9784,50.6784 Z" id="Fill-8"></path>
                <path d="M45.8856,60 C45.6696,60 45.4536,59.9424 45.264,59.8248 C44.904,59.6064 44.6856,59.2152 44.688,58.7952 L44.7672,41.0232 C44.7672,40.5768 45.0168,40.1712 45.4104,39.9648 L59.5128,32.5704 C59.8872,32.3712 60.336,32.3904 60.696,32.6088 C61.0536,32.8272 61.272,33.2184 61.272,33.6384 L61.1904,51.4104 C61.188,51.8544 60.9408,52.26 60.5472,52.4664 L46.4448,59.8608 C46.2696,59.9544 46.0776,60 45.8856,60 L45.8856,60 Z M47.1624,41.7528 L47.0952,56.8104 L58.7952,50.6784 L58.8624,35.6232 L47.1624,41.7528 L47.1624,41.7528 Z" id="Fill-9"></path>
            </g>
        </g>
    </g>
</svg>