<?xml version="1.0" encoding="UTF-8"?>
<svg width="60px" height="60px" viewBox="0 0 60 60" version="1.1" xmlns="http://www.w3.org/2000/svg" xmlns:xlink="http://www.w3.org/1999/xlink">
    <!-- Generator: Sketch 47 (45396) - http://www.bohemiancoding.com/sketch -->
    <title>Fill 1</title>
    <desc>Created with Sketch.</desc>
    <defs></defs>
    <g id="留学" stroke="none" stroke-width="1" fill="none" fill-rule="evenodd">
        <g id="Artboard" transform="translate(-509.000000, -412.000000)" fill="#197BC0">
            <path d="M560.764713,430.6005 C561.217056,429.96425 561.481255,429.19875 561.481255,428.375 C561.481255,426.165625 559.582577,424.375 557.241359,424.375 C556.368206,424.375 555.556796,424.62425 554.882255,425.051125 C550.312973,421.876875 544.668745,420 538.55932,420 C523.338758,420 511,431.640625 511,446 C511,460.359625 523.338758,472 538.55932,472 C553.779617,472 566.118641,460.359625 566.118641,446 C566.118641,440.236125 564.12907,434.91125 560.764713,430.6005 L560.764713,430.6005 Z M556.556351,462.979 C554.218314,465.18475 551.496169,466.916375 548.465571,468.12575 C545.329108,469.37725 541.996285,470.011875 538.55932,470.011875 C535.122355,470.011875 531.7894,469.37725 528.652937,468.12575 C525.622339,466.916375 522.900326,465.184875 520.562157,462.979 C518.223987,460.773125 516.388508,458.205125 515.106735,455.346 C513.780046,452.387 513.107361,449.2425 513.107361,446 C513.107361,442.7575 513.780046,439.613125 515.106604,436.654125 C516.388377,433.795 518.223854,431.227 520.562024,429.021125 C522.900194,426.81525 525.622207,425.083625 528.652805,423.874375 C531.7894,422.62275 535.122355,421.988125 538.55932,421.988125 C541.996153,421.988125 545.329108,422.62275 548.465571,423.87425 C550.247122,424.585125 551.921086,425.478 553.474212,426.540125 C553.172782,427.089875 553.001464,427.713375 553.001464,428.375 C553.001464,430.584375 554.899745,432.375 557.241359,432.375 C557.942665,432.375 558.603426,432.213375 559.186147,431.929 C560.312104,433.394125 561.258528,434.973375 562.011904,436.654125 C563.338594,439.613125 564.01128,442.7575 564.01128,446 C564.01128,449.242375 563.338594,452.387 562.011904,455.346 C560.729998,458.205125 558.894654,460.77325 556.556351,462.979 Z M547.553887,437.514712 C542.586545,432.828425 534.53289,432.828425 529.565535,437.514712 C524.598193,442.201012 524.598193,449.798987 529.565535,454.485287 C534.53289,459.171575 542.586545,459.171575 547.553887,454.485287 C552.521243,449.798987 552.521243,442.201012 547.553887,437.514712 Z" id="Fill-1"></path>
        </g>
    </g>
</svg>