<?xml version="1.0" encoding="UTF-8"?>
<svg width="60px" height="60px" viewBox="0 0 60 60" version="1.1" xmlns="http://www.w3.org/2000/svg" xmlns:xlink="http://www.w3.org/1999/xlink">
    <!-- Generator: Sketch 47 (45396) - http://www.bohemiancoding.com/sketch -->
    <title>Fill 1</title>
    <desc>Created with Sketch.</desc>
    <defs></defs>
    <g id="留学" stroke="none" stroke-width="1" fill="none" fill-rule="evenodd">
        <g id="Artboard" transform="translate(-662.000000, -235.000000)" fill="#197BC0">
            <path d="M715.228055,281.060574 C716.298849,283.084583 716.671695,285.044848 716.628889,286.857143 C716.519846,291.488647 713.247308,295 708.65119,295 L676.243813,295 C671.638577,295 668.137948,291.502516 668.003577,286.857143 C667.951398,285.052228 668.470521,283.074277 669.535869,281.060574 L684.210874,256.194196 L684.210874,240.035714 L682.184535,240.035714 L682.184535,238 L684.212267,238 L686.237214,238 L686.237214,240.035714 L686.237214,242.071429 L692.316233,242.071429 L692.316233,244.107143 L686.237214,244.107143 L686.237214,248.178571 L690.289893,248.178571 L690.289893,250.214286 L686.237214,250.214286 L686.237214,254.285714 L692.316233,254.285714 L692.316233,256.321429 L686.237214,256.321429 L686.237214,256.754018 L685.984428,257.243098 L684.124375,260.392857 L690.289893,260.392857 L690.289893,262.428571 L682.921742,262.428571 L671.335132,282.04217 C669.667961,285.22221 669.540302,287.556156 671.047012,290.07548 C672.132877,291.891083 674.027124,292.964286 676.24394,292.964286 L708.65119,292.964286 C710.848375,292.964286 712.7159,291.903932 713.788467,290.110342 C714.369393,289.139433 714.586592,288.045364 714.617367,286.857143 C714.657007,285.329467 714.332286,283.658654 713.477424,282.027792 L698.71364,257.238645 L698.395252,256.756308 L698.395252,240.035714 L698.395252,238 L700.420451,238 L702.447931,238 L702.447931,240.035714 L700.421591,240.035714 L700.421591,256.194196 L715.228055,281.060574 Z M673.609572,281.591768 L682.627796,266.5 L702.033671,266.5 L711.131429,281.604618 C712.010734,282.952643 712.443864,284.637324 712.408783,285.844502 C712.319371,288.929627 710.398021,290.928571 706.623457,290.928571 L678.010022,290.928571 C674.228112,290.928571 672.224569,289.369978 672.224569,285.860406 C672.224569,284.657426 672.734826,282.933049 673.609572,281.591768 Z M700.890815,268.535714 L709.397389,282.641942 L709.416513,282.657719 L709.43665,282.680875 C710.11826,283.725705 710.405113,285.006042 710.383457,285.757348 C710.354455,286.754721 710.069754,287.536054 709.53708,288.021444 C708.932471,288.572105 707.925,288.892984 706.623204,288.892984 L678.009895,288.892984 C676.608681,288.892984 675.569422,288.608493 675.00458,288.1301 C674.818157,287.972333 674.250528,287.475746 674.250528,285.828725 C674.250528,285.072585 674.612357,283.744281 675.304098,282.683929 L675.326515,282.645504 L675.347538,282.640161 L683.775718,268.535714 L700.890815,268.535714 L700.890815,268.535714 Z" id="Fill-1"></path>
        </g>
    </g>
</svg>