<?xml version="1.0" encoding="UTF-8"?>
<svg width="60px" height="60px" viewBox="0 0 60 60" version="1.1" xmlns="http://www.w3.org/2000/svg" xmlns:xlink="http://www.w3.org/1999/xlink">
    <!-- Generator: Sketch 47 (45396) - http://www.bohemiancoding.com/sketch -->
    <title>Imported Layers</title>
    <desc>Created with Sketch.</desc>
    <defs></defs>
    <g id="留学" stroke="none" stroke-width="1" fill="none" fill-rule="evenodd">
        <g id="Artboard-2" transform="translate(-395.000000, -334.000000)" fill="#197BC0">
            <g id="Imported-Layers" transform="translate(399.000000, 334.000000)">
                <path d="M15.5172414,54.8275862 C14.9462069,54.8275862 14.4827586,54.3641379 14.4827586,53.7931034 L14.4827586,6.20689655 C14.4827586,5.63586207 14.9462069,5.17241379 15.5172414,5.17241379 C16.0882759,5.17241379 16.5517241,5.63586207 16.5517241,6.20689655 L16.5517241,53.7931034 C16.5517241,54.3641379 16.0882759,54.8275862 15.5172414,54.8275862" id="Fill-1"></path>
                <path d="M9.31034483,49.6551724 L1.03448276,49.6551724 C0.463448276,49.6551724 0,49.1917241 0,48.6206897 L0,40.3448276 C0,39.7737931 0.463448276,39.3103448 1.03448276,39.3103448 L9.31034483,39.3103448 C9.88137931,39.3103448 10.3448276,39.7737931 10.3448276,40.3448276 L10.3448276,48.6206897 C10.3448276,49.1917241 9.88137931,49.6551724 9.31034483,49.6551724 L9.31034483,49.6551724 Z M2.06896552,47.5862069 L8.27586207,47.5862069 L8.27586207,41.3793103 L2.06896552,41.3793103 L2.06896552,47.5862069 Z" id="Fill-2"></path>
                <path d="M9.31034483,35.1724138 L1.03448276,35.1724138 C0.463448276,35.1724138 0,34.7089655 0,34.137931 L0,25.862069 C0,25.2910345 0.463448276,24.8275862 1.03448276,24.8275862 L9.31034483,24.8275862 C9.88137931,24.8275862 10.3448276,25.2910345 10.3448276,25.862069 L10.3448276,34.137931 C10.3448276,34.7089655 9.88137931,35.1724138 9.31034483,35.1724138 L9.31034483,35.1724138 Z M2.06896552,33.1034483 L8.27586207,33.1034483 L8.27586207,26.8965517 L2.06896552,26.8965517 L2.06896552,33.1034483 Z" id="Fill-3"></path>
                <path d="M50.6896552,60 L5.17241379,60 C4.60137931,60 4.13793103,59.5365517 4.13793103,58.9655172 L4.13793103,53.7931034 C4.13793103,53.222069 4.60137931,52.7586207 5.17241379,52.7586207 C5.74344828,52.7586207 6.20689655,53.222069 6.20689655,53.7931034 L6.20689655,57.9310345 L49.6551724,57.9310345 L49.6551724,2.06896552 L6.20689655,2.06896552 L6.20689655,4.13793103 C6.20689655,4.70896552 5.74344828,5.17241379 5.17241379,5.17241379 C4.60137931,5.17241379 4.13793103,4.70896552 4.13793103,4.13793103 L4.13793103,1.03448276 C4.13793103,0.463448276 4.60137931,0 5.17241379,0 L50.6896552,0 C51.2606897,0 51.7241379,0.463448276 51.7241379,1.03448276 L51.7241379,58.9655172 C51.7241379,59.5365517 51.2606897,60 50.6896552,60" id="Fill-4"></path>
                <path d="M9.31034483,18.6206897 L1.03448276,18.6206897 C0.463448276,18.6206897 0,18.1572414 0,17.5862069 L0,9.31034483 C0,8.73931034 0.463448276,8.27586207 1.03448276,8.27586207 L9.31034483,8.27586207 C9.88137931,8.27586207 10.3448276,8.73931034 10.3448276,9.31034483 L10.3448276,17.5862069 C10.3448276,18.1572414 9.88137931,18.6206897 9.31034483,18.6206897 L9.31034483,18.6206897 Z M2.06896552,16.5517241 L8.27586207,16.5517241 L8.27586207,10.3448276 L2.06896552,10.3448276 L2.06896552,16.5517241 Z" id="Fill-5"></path>
                <path d="M40.3448276,34.1068966 C40.1710345,34.1068966 39.9972414,34.0634483 39.84,33.9765517 L35.1724138,31.3696552 L30.5048276,33.9765517 C30.1841379,34.1544828 29.7931034,34.1482759 29.4765517,33.9662069 C29.16,33.78 28.9655172,33.4406897 28.9655172,33.0724138 L28.9655172,1.03448276 C28.9655172,0.463448276 29.4289655,0 30,0 L40.3448276,0 C40.9158621,0 41.3793103,0.463448276 41.3793103,1.03448276 L41.3793103,33.0724138 C41.3793103,33.4406897 41.1848276,33.78 40.8682759,33.9662069 C40.7068966,34.0593103 40.5268966,34.1068966 40.3448276,34.1068966 L40.3448276,34.1068966 Z M35.1724138,29.1517241 C35.3462069,29.1517241 35.52,29.1951724 35.6751724,29.282069 L39.3103448,31.3117241 L39.3103448,2.06896552 L31.0344828,2.06896552 L31.0344828,31.3117241 L34.6675862,29.282069 C34.8248276,29.1951724 34.9986207,29.1517241 35.1724138,29.1517241 L35.1724138,29.1517241 Z" id="Fill-6"></path>
            </g>
        </g>
    </g>
</svg>